 Full Credits To Feel Free :)

 ######## ######## ######## ##          ######## ########  ######## ######## 
 ##       ##       ##       ##          ##       ##     ## ##       ##       
 ##       ##       ##       ##          ##       ##     ## ##       ##       
 ######   ######   ######   ##          ######   ########  ######   ######   
 ##       ##       ##       ##          ##       ##   ##   ##       ##       
 ##       ##       ##       ##          ##       ##    ##  ##       ##       
 ##       ######## ######## ########    ##       ##     ## ######## ########

Genre:Action | Adventure | Drama 
 Language:English
 IMDb: 
http://www.imdb.com/title/tt1270798/
 Source:DVD.R5.RELIZLAB/IMAGINE Thanks!
 Subtitles:ENGLISH WHEN NEEDED/Romana

 Format : MPEG-4
 Format profile : Base Media
 Codec ID : isom
 File size : 1.52 GiB
 Duration : 2h 6mn
 Overall bit rate : 1 721 Kbps

 Video
 ID : 1
 Format : AVC
 Format/Info : Advanced Video Codec
 Format profile : High@L4.1
 Format settings, CABAC : Yes
 Format settings, ReFrames : 3 frames
 Format settings, GOP : N=1
 Codec ID : avc1
 Codec ID/Info : Advanced Video Coding
 Duration : 2h 6mn
 Bit rate mode : Variable
 Bit rate : 1 500 Kbps
 Maximum bit rate : 6 756 Kbps
 Width : 720 pixels
 Height : 288 pixels
 Display aspect ratio : 2.500
 Frame rate mode : Constant
 Frame rate : 25.000 fps
 Color space : YUV
 Chroma subsampling : 4:2:0
 Bit depth : 8 bits
 Scan type : Progressive
 Bits/(Pixel*Frame) : 0.289
 Stream size : 1.32 GiB (87%)
 Writing library : x264 

 Audio
 ID : 2
 Format : AAC
 Format/Info : Advanced Audio Codec
 Format version : Version 4
 Format profile : LC
 Format settings, SBR : No
 Codec ID : 40
 Duration : 2h 6mn
 Bit rate mode : Variable
 Bit rate : 224 Kbps
 Maximum bit rate : 282 Kbps
 Channel(s) : 2 channels
 Channel positions : Front: L R
 Sampling rate : 44.1 KHz
 Stream size : 202 MiB (13%)


 Plot:
 In 1962, Charles Xavier starts up a school and later a team, for humans with superhuman abilities. Among them is Erik Lensherr, his best friend... and future archenemy



Greets:

 INK,CRYS,IMAGINE,LKRG,FXG,3Li,FLAWL3SS,TA,iLLUSiON,ViSiON,DTRG SAFCuk009,LU,TheFalcon007,MYSTiC,PrisM,Noir,WBZ,LAP,Rx,Kingdom,SAFCuk009+Fabreezy,HDLiTE,TWiZTED,ExtraTorrentRG.ELEKTRI4KA,MAGNAT,CM8
 And to all the other p2p grps past and present




==================================              
http://thepiratebay.org/user/hiest
==================================




Screenshots:
 
http://www.pix2links.com/images/65437378283343994118.png
 
http://www.pix2links.com/images/09557489920735350089.png
 
http://www.pix2links.com/images/80416109457359080286.png
 
http://www.pix2links.com/images/13554698676331200153.png
 
http://www.pix2links.com/images/24691466866117993842.png
 
http://www.pix2links.com/images/59112273152110094039.png


 Full Credits To Feel Free :)

 ######## ######## ######## ##          ######## ########  ######## ######## 
 ##       ##       ##       ##          ##       ##     ## ##       ##       
 ##       ##       ##       ##          ##       ##     ## ##       ##       
 ######   ######   ######   ##          ######   ########  ######   ######   
 ##       ##       ##       ##          ##       ##   ##   ##       ##       
 ##       ##       ##       ##          ##       ##    ##  ##       ##       
 ##       ######## ######## ########    ##       ##     ## ######## ########